/* XPM */
static char *bitcoin641728408755[] = {
/* columns rows colors chars-per-pixel */
"64 64 215 2 ",
"   c None",
".  c #000000",
"X  c #0B0502",
"o  c #0D0A03",
"O  c #02030C",
"+  c #0C0D0C",
"@  c #09080A",
"#  c #130C02",
"$  c #1B0D01",
"%  c #120905",
"&  c #1E1101",
"*  c #1A1507",
"=  c #151616",
"-  c #091019",
";  c #280B00",
":  c #231400",
">  c #221C05",
",  c #291A07",
"<  c #351801",
"1  c #251910",
"2  c #282407",
"3  c #382806",
"4  c #39340B",
"5  c #382616",
"6  c #383912",
"7  c #0F1726",
"8  c #1B2834",
"9  c #262626",
"0  c #2B323A",
"q  c #383736",
"w  c #302F2F",
"e  c #442D00",
"r  c #4A2709",
"t  c #4B3400",
"y  c #4D3B0F",
"u  c #473809",
"i  c #563700",
"p  c #412D1B",
"a  c #402912",
"s  c #4A3718",
"d  c #53300E",
"f  c #643C03",
"g  c #703A0A",
"h  c #4C3520",
"j  c #5A4504",
"k  c #464112",
"l  c #544411",
"z  c #574F15",
"x  c #585015",
"c  c #694600",
"v  c #714600",
"b  c #774B00",
"n  c #775200",
"m  c #675A17",
"M  c #715416",
"N  c #78681A",
"B  c #7F721D",
"V  c #6E6418",
"C  c #5E4125",
"Z  c #42403F",
"A  c #6C4B2A",
"S  c #654627",
"D  c #79542F",
"F  c #74512D",
"G  c #7D5630",
"H  c #7F5831",
"J  c #775332",
"K  c #724F2C",
"L  c #333A43",
"P  c #474747",
"I  c #4B4D55",
"U  c #53514F",
"Y  c #585E64",
"T  c #696866",
"R  c #7A797A",
"E  c #6D6D71",
"W  c #845C00",
"Q  c #885800",
"!  c #9B5A19",
"~  c #885007",
"^  c #A95C17",
"/  c #8B6500",
"(  c #996800",
")  c #88711D",
"_  c #93741C",
"`  c #836917",
"'  c #A96D00",
"]  c #A87500",
"[  c #B37D00",
"{  c #B77901",
"}  c #B7681C",
"|  c #AE621B",
" . c #835B32",
".. c #895F35",
"X. c #857520",
"o. c #987D20",
"O. c #937C20",
"+. c #8D6236",
"@. c #926538",
"#. c #97693A",
"$. c #9C6C3C",
"%. c #A06F3E",
"&. c #A2703F",
"*. c #C56B1D",
"=. c #CA7810",
"-. c #CB7821",
";. c #D67C23",
":. c #F37B22",
">. c #F97D22",
",. c #F47721",
"<. c #EA7F24",
"1. c #A77441",
"2. c #B67E46",
"3. c #B88400",
"4. c #B08D13",
"5. c #928221",
"6. c #A28422",
"7. c #A98D25",
"8. c #AA9225",
"9. c #B59827",
"0. c #BCA52A",
"q. c #CB8100",
"w. c #C58900",
"e. c #D78501",
"r. c #DC9300",
"t. c #D99700",
"y. c #CC9203",
"u. c #FF8D00",
"i. c #EA9D00",
"p. c #E69D00",
"a. c #F59200",
"s. c #FF9200",
"d. c #FE9B00",
"f. c #E18F00",
"g. c #E8A300",
"h. c #FFA400",
"j. c #FEAC00",
"k. c #F4A500",
"l. c #FFB300",
"z. c #FFBC00",
"x. c #D49027",
"c. c #EB8225",
"v. c #FE8324",
"b. c #FF8D27",
"n. c #F58826",
"m. c #FE9429",
"M. c #FF9B2B",
"N. c #FB9127",
"B. c #C7A72B",
"V. c #CBB22D",
"C. c #D7B62F",
"Z. c #DFBE31",
"A. c #FFAE2D",
"S. c #FFA32D",
"D. c #FFB42E",
"F. c #FFB82F",
"G. c #FFBC31",
"H. c #FBB631",
"J. c #E7B52E",
"K. c #FFC400",
"L. c #FFCC00",
"P. c #FFD400",
"I. c #FFD801",
"U. c #FFE300",
"Y. c #DCC232",
"T. c #E9C532",
"R. c #F4C432",
"E. c #FFC332",
"W. c #FECD34",
"Q. c #F6CB34",
"!. c #FFD336",
"~. c #FFDC38",
"^. c #F8D737",
"/. c #FFE33A",
"(. c #FFEB3C",
"). c #FFF33E",
"_. c #FFF83F",
"`. c #84817F",
"'. c #FFFE43",
"]. c #8A8784",
"[. c #95918D",
"{. c #999694",
"}. c #948F8C",
"|. c #A19D9B",
" X c #A4A09C",
".X c #AAA7A4",
"XX c #B0ACAA",
"oX c #BCB7B4",
"OX c #B6B1AE",
"+X c #C2BDBA",
"@X c #C0BBB7",
"#X c #C6C1BD",
"$X c #C8C3BF",
"%X c #CBC6C2",
"&X c #CEC9C5",
"*X c #C5C7CA",
"=X c #D3CECA",
"-X c #D1CCC7",
";X c #D6D1CC",
":X c #D9D3CF",
">X c #DBD6D1",
",X c #DFD9D4",
"<X c #E0DBD6",
"1X c #E3DED9",
"2X c #E9E3DE",
"3X c #E7E1DD",
"4X c #ECE6E2",
"5X c #EEE9E4",
"6X c #F1EBE6",
"7X c #F4EEE9",
"8X c #F7F0EB",
"9X c #FAF3EE",
"0X c #FFFBF6",
"qX c #FFFFFC",
"wX c #FDF7F2",
/* pixels */
"                                                                                                                                ",
"                                                                                                                                ",
"                                                                                                                                ",
"                                                                                                                                ",
"                                        . .                               . .                                                   ",
"                                      . X 4 . .                       . . 4 * . .                                               ",
"                                  . . e p.P.[ 3 . .               . . # 6.'.!.x . .                                             ",
"                              . X : [ P.p.~ j.l./ # . .         . . M (.'._ x.).0.u . .                                         ",
"                          . . X Q L.K.W . . f.h.l.p.c . .   . . k T.'.V.> . N !.!.~.7.* . .                                     ",
"                        . . i g.I.[ o . t t.d.s.u.h.z.w.e . 2 8.'.^.y . o 8.W.D.A.F.~.Q.N . .                                   ",
"                        . & z.j.t . & 3.l.h.u.s.s.s.u.z.t.. 7.'.) . . N W.~.D.D.D.D.A.E.).y .                                   ",
"                        . : l.v . Q l.j.s.u.s.s.s.s.u.h.q.. 9.R.. 4 Y.(.H.A.D.D.D.D.D.D.!.k .                                   ",
"                        . & l.c . j.h.u.s.s.s.s.s.s.s.h.q.. 8.G.. 7.(.A.A.D.D.D.D.D.D.D.W.y .                                   ",
"                        . & j.v . a.d.s.s.s.s.s.s.s.s.h.q.. 8.R.. _ !.D.D.D.D.D.D.D.D.D.W.u .                                   ",
"                        . : l.v . a.d.s.s.s.s.s.s.s.u.h.=.. 7.R.. O.W.D.D.F.D.D.D.D.D.D.(.l .                                   ",
"                        . $ l.v . a.d.s.s.s.s.s.s.s.s.h.q.. 8.R.. _ !.D.D.D.D.D.D.D.D.!.0.X .                                   ",
"                        . & l.f . a.d.s.s.s.s.s.s.s.s.h.=.. 9.H.. ) !.D.D.D.D.D.D.D.W.B.. 7 9 X                                 ",
"                        . : z.Q > a.d.s.s.s.s.s.s.s.u.k.r.. 9.!.& 6.W.D.D.D.D.D.D.D.~.t O qXqX. .                               ",
"                        . . q.K.h.s.u.s.s.s.s.s.s.u.h.K.( . m '.~.F.A.D.D.D.D.D.D.A.~._ . *X*X. .                               ",
"                      . . o . n j.l.s.s.s.s.s.u.d.l.t.t . & . 2 V./.W.A.D.D.D.A.D.!.~.X.. . . . @                               ",
"                  . . 3 C./.x . . ( l.j.s.u.s.l.k.n . . ~ S.| . . l Z./.H.A.A.W.~.9.* . t 3.[ > . .                             ",
"              . . # 6.'.Q.B.(.B.6 . : 3.l.l.j.] X . d N.S.-.b.N.M . . B ^./.~.C.k . % 3.P.j.i.& 3 t . .                         ",
"            . . m (.'.6.. X E.!.^.7.+ . j 3.3 . 1 -.H.x.1 . ^ m.M.;.a . * 9.X.. . Q L.K.n . X . { L./ # . .                     ",
"        . . y Y.'.V.> . 4 B.E.D.D.~.W.N . . . ! H.M.g . . ! n.:.:.b.M.} $ . . t l.P.[ & . / c . e.j.j.i.W # X o . .             ",
"        . 4 ).!.l . o 8.~.W.A.D.D.D.G._.O.. -.A.! . . g c.M.v.<.:.:.>.M.b.. t P.t.e . . ' z.> 3 j.u.s.K.y.# . . w I .           ",
"        . l ).y . N !.~.D.D.D.D.D.D.D.!.6.. n.*.. 3 -.M.v.,.:.:.:.:.:.v.v.. c P.: . . . # . . c z.z.j.j . . . . 8XqXq .         ",
"        . y (., 2 (.G.A.F.D.D.D.D.D.D.!.6.. c.| . ;.S.,.:.:.:.:.:.:.:.v.v.. W p.. . p S C h 1 . 3 w., . ( W . . `.XX= @         ",
"        . y (.5 * W.F.D.D.D.D.D.D.D.A.!._ . c.} . *.b.<.:.:.:.v.:.>.:.v.:.X i : + ..%.#.@.$.$.S . . o [ I.b . * . . .           ",
"        . y (.3 > !.F.D.D.D.D.D.D.D.D.!._ . c.} . *.m.N.m.m.b.b.b.b.m.M.M.; . . H $.D D G G H 1.F @ t L.j.c .                   ",
"        . y (.4 * W.F.D.D.D.D.D.D.D.D.!.5.. c.} . ;.N.^ g r < ; ; ; < r g % . 5 %.J  .H H H H J 1.5 . q.K.v .                   ",
"        . y (., * W.H.D.D.D.F.D.D.D.D.!._ . m.;.. < . . . 7 8 0 L 0 8 - . . . h #.H H H H H H H +.H . b L.c .                   ",
"        . l ).3 2 !.D.D.D.D.D.D.D.D.A.!.7.X ! < . - Y .X#X:X1X3X4X1X<X:X-X.XX 5 $.G H H H H H H H @.O e L.~ .                   ",
"        . 4 /.!.J.D.D.D.D.D.D.D.D.A.E.).O.. . - {.<X8X2X:X$X$X$X%X%X%X&X>X0X8 X $.D  . .H H  .D  .@.O f U.c .                   ",
"        . . 4 V.(.E.A.D.D.D.D.A.F.~.T.m . . T 2X8X-X@X+X$X1X<X+X#X#X#X%XoX5X{.. A $.D D H H  .D +. .. b n . .                   ",
"            . . z C./.G.A.D.D.^.!.) @ . . [.0X;XoX#X:X7X2XOX X&X%X%X#X%X#X0X{.. . +.$. .D D D  .1.p . . O                       ",
"                . . B W.!.W.~.0.> . $ . R qX#X$X7X2X#XR w X 9 3X%X#XoX%X0X[.. y * . A #.$.$.$.$.s . . .                         ",
"                  . . 2 9.T.6 . # t.e 7 8X%X%X%X`.w X . = T oX=X#X+X=XwX].. u '.J.> . 1 3 5 , X . .                             ",
"                      . . . . Q I.l.O R 7X+X2X X. + T OX1X8X:X+X+X2X7XT . . 2 0.'.).N . . . = @ .                               ",
"                        . . f.L.] X . [.7X@X%X#XoX:X7X1X%X@X@X;XwX%Xw . h ..+ . m (.z O =X%X6X X.                               ",
"                        . : z.( . 3 $ 0 0X<X@X$X>X%X@X+X%X<X9X<XR . . A %.#.#.p . & . R 0X>X;X8Xh O                             ",
"                        . : l.f . K.[ . I ,X7X5X4X2X5X6X<XoXE - . 5 ..$.G D +.$.G . . ;X;X#X@X5XXX.                             ",
"                        . $ l.c . s.z.W . O I R [.[.E I 7 . . . X 1.%.F G G D  .$.X P 8X#X$X$X$X4Xw .                           ",
"                        . : j.v . a.d.l.w.i . . . . . . 3 ` R.9.. X ..$.G G G #.C . {.6X#X$X#X#X7X]..                           ",
"                        . & l.v . a.d.u.h.j.d.g.e . C.!.!.~.E.~.9.. . A %.+.D $., O ;X;X$X#X#X#X:X%X@ .                         ",
"                        . $ l.c . a.d.s.u.s.d.K.b . m (.D.A.D.A./.C.> . 5 @.$.@.X q 5X#X+X;X;X#X$X5XZ .                         ",
"                        . : z.g . a.d.s.s.s.u.j.~ . . ) (.D.D.D.A.!.Q.m . . S +.. E 6X#X%X#X$X$X+X7XR .                         ",
"                        . & l.i.' d.s.s.s.s.u.j.( . * . 5.(.D.D.D.A.E./.0.4 . . . {.2X#X2Xw w 2X#X3X X.                         ",
"                          . t t.L.d.u.s.s.s.u.j.{ . J 5 . O.(.H.A.D.D.A.!.~.8.2 . XX1X$X2X9 + 3X$X,X@X.                         ",
"                            . . c g.l.d.u.s.u.h.j.. p 7.1 . V ~.W.A.D.D.A.D.).4.. XX<X#X2Xq = <X%X:X+X@                         ",
"                              . . # ( j.j.s.l.k.n . 1 1.%.p . 4 V.(.G.A.D.A.!.o.. .X1X#X2Xq = ,X%X>XoXX                         ",
"                                  . . 3 3.l.] & . . +  ...$.S . . V Q.(.E.A.W.9.. {.3X#X6XZ + >X%X>XoX.                         ",
"                                      . . 2 . .     O K @.G $...5 . . N J.~.(.J.. E 6X#X6XZ . ;X&X3XOX.                         ",
"                                        . .         . h $.G D ..$.K * . . x 8.!.* L 7X+X7XZ . :X&X5X]..                         ",
"                                                    . * %.@.+.@.@.1.2.@.5 . X > & + :X=X-XXX{.;X#X8XU .                         ",
"                                                    . . h ..K A S h 5 h 5 @ . . . . }.9XoX>X3X+X:X:X+ .                         ",
"                                                  . + p X . . . . . . . .         . = 5X,XoX+X#X0XT .                           ",
"                                                  . s %.X .                         . P wX7X3X0X X. .                           ",
"                                                  . % @ .                             . q .XOXE . .                             ",
"                                                    . .                                 . . . . .                               ",
"                                                                                          . .                                   ",
"                                                                                                                                ",
"                                                                                                                                ",
"                                                                                                                                ",
"                                                                                                                                "
};
