/* XPM */
static char *bitcoin321728408755[] = {
/* columns rows colors chars-per-pixel */
"32 32 198 2 ",
"   c None",
".  c #010101",
"X  c #0C0C0C",
"o  c #080504",
"O  c #120E03",
"+  c #180800",
"@  c #151503",
"#  c #1D1405",
"$  c #181717",
"%  c #0C0E1A",
"&  c #251707",
"*  c #241812",
"=  c #391F1D",
"-  c #1E200A",
";  c #242200",
":  c #2E2400",
">  c #2A260A",
",  c #352A01",
"<  c #3D2900",
"1  c #352705",
"2  c #392618",
"3  c #3F3910",
"4  c #3A3600",
"5  c #1A0F22",
"6  c #381F20",
"7  c #29292B",
"8  c #383327",
"9  c #3D3C3B",
"0  c #451400",
"q  c #501A0E",
"w  c #412D00",
"e  c #522C06",
"r  c #453001",
"t  c #4C3806",
"y  c #583809",
"u  c #432E1B",
"i  c #4B341E",
"p  c #433D13",
"a  c #512D18",
"s  c #722F00",
"d  c #6E3807",
"f  c #733100",
"g  c #633812",
"h  c #4D3331",
"j  c #394313",
"k  c #454509",
"l  c #5B4201",
"z  c #554705",
"x  c #434415",
"c  c #494911",
"v  c #544C18",
"b  c #5C5115",
"n  c #5B5918",
"m  c #4C5415",
"M  c #644F01",
"N  c #6A4B03",
"B  c #714500",
"V  c #784702",
"C  c #685908",
"Z  c #735201",
"A  c #795401",
"S  c #755A00",
"D  c #6C4716",
"F  c #695917",
"G  c #735B1A",
"H  c #764D17",
"J  c #776208",
"K  c #6C6A1B",
"L  c #696518",
"P  c #796819",
"I  c #7A7519",
"U  c #4F4E2B",
"Y  c #4A453A",
"T  c #684836",
"R  c #704E30",
"E  c #7B5531",
"W  c #7C553A",
"Q  c #78532F",
"!  c #736120",
"~  c #6A6621",
"^  c #2C344A",
"/  c #444241",
"(  c #49484A",
")  c #4A4C57",
"_  c #545354",
"`  c #615E5C",
"'  c #62605E",
"]  c #535D71",
"[  c #605F6E",
"{  c #57606B",
"}  c #656361",
"|  c #6A6967",
" . c #666C7B",
".. c #656875",
"X. c #797673",
"o. c #803700",
"O. c #845C00",
"+. c #825400",
"@. c #8D4714",
"#. c #895608",
"$. c #A7591B",
"%. c #836300",
"&. c #896900",
"*. c #996C00",
"=. c #9F7600",
"-. c #947701",
";. c #AB7A00",
":. c #A07700",
">. c #A46600",
",. c #8D5E29",
"<. c #895E37",
"1. c #817820",
"2. c #937C20",
"3. c #8E6337",
"4. c #9A6A3B",
"5. c #946539",
"6. c #B06E22",
"7. c #A2703F",
"8. c #A06832",
"9. c #D06B07",
"0. c #FE7F23",
"q. c #AF7845",
"w. c #A58503",
"e. c #BB8700",
"r. c #B08910",
"t. c #8C8125",
"y. c #9A8C24",
"u. c #A79625",
"i. c #B49827",
"p. c #AA9C30",
"a. c #C98D00",
"s. c #DE8F01",
"d. c #CB9500",
"f. c #C59600",
"g. c #DE9A00",
"h. c #FF8D00",
"j. c #FF8700",
"k. c #FF9100",
"l. c #FF9F00",
"z. c #C6AC1A",
"x. c #E8A701",
"c. c #FFA500",
"v. c #FFAD00",
"b. c #F0A300",
"n. c #FFB400",
"m. c #FFBB00",
"M. c #EDB714",
"N. c #EA8124",
"B. c #FE8824",
"V. c #FF9529",
"C. c #FF9024",
"Z. c #C2AE2C",
"A. c #C0A62A",
"S. c #C7B433",
"D. c #D1B82F",
"F. c #FFAA2D",
"G. c #FFB22E",
"H. c #FFB92F",
"J. c #FFB832",
"K. c #FFC600",
"L. c #D6C933",
"P. c #EDC434",
"I. c #EDC930",
"U. c #FFC332",
"Y. c #FECB34",
"T. c #F3C732",
"R. c #FFD336",
"E. c #FFDA37",
"W. c #FFDC39",
"Q. c #F6D836",
"!. c #E5C72F",
"~. c #FFE43B",
"^. c #FFEB3D",
"/. c #FFF43F",
"(. c #BB8148",
"). c #83807D",
"_. c #FFFB41",
"`. c #637587",
"'. c #7D8085",
"]. c #7F8EB2",
"[. c #9C9894",
"{. c #84859B",
"}. c #A09B97",
"|. c #989CA0",
" X c #B8B7B5",
".X c #C5BFBB",
"XX c #C7C2BD",
"oX c #C6C6C8",
"OX c #C7C5C4",
"+X c #DDDAD8",
"@X c #CCCBCF",
"#X c #E4DEDA",
"$X c #E8E2DE",
"%X c #E7E4E6",
"&X c #F4EDE7",
"*X c #FFFBF5",
"=X c #F6F8FD",
"-X c #FFFFFF",
/* pixels */
"                                                                ",
"                                                                ",
"                    : .             > @                         ",
"                # :.e.e.,       o t.Z.A.m .                     ",
"              Z f.S l n.v.&.o x S.I x P.^.u.>                   ",
"            : g.t %.v.k.k.K.N p.K n T.H.F./.u.                  ",
"            < Z B K.h.k.h.c.A ! F ^.H.G.G.R.i.                  ",
"            < A d v.k.k.k.c.Z ! F U.G.G.G.~.C                   ",
"            & ;.#.c.k.h.h.m.Z t.2.U.G.G.Y.r.{  .                ",
"            # Z b.n.h.l.n.=.: x L.W.G.H./.P ) '                 ",
"        @ y.Z.~ 1 O.n.a.z D 6.@.> K E.T.v C =.e @               ",
"    . L S.K n ~.S.c 4 t ,.H a C.0.e j p J w.J r s.f.,           ",
"    p L.c P Y.G.U._.3 $.D y N.B.0.F.q J -.. < , m.x., X |.9     ",
"    F F F /.G.G.G.U.,.d g G.V.C.C.F.$., $ R T 2 4 M O.X | $     ",
"    v L G R.G.J.G.J.G @.d 9.o.s s +.< . 5.4.<.q.5 *.x.          ",
"    b y.#.R.G.G.F._.P 0 * _ [ `.`.`.( * 4.Q E <.T M d.          ",
"    @ i.W.U.F.U.W.Z.@ ) OX=X-X&X#X$X-X( g 4.Q 3.W t S           ",
"      . n D._.S.n . ..-X&X}.( [.@X$X+XY + Q <.,.i .             ",
"          o L z B Y -X.X/ ( | OX-XoX% C L.; 2 * .               ",
"            . d.y ^ =X#X.X*X-X+X`.# D u L U oXOXX               ",
"            w +.V :.^ {..X].[ 7 o 8.4.7.o  .*X*XX.              ",
"            < A V K.*.D O C -.z.u u 5.4.>  X#X#XXXo             ",
"            w *.V c.c.m.& I _.R.I.k * a Y +XOXOX$X9             ",
"            + ;.n.c.j.n.D . I ~.Y.R.u.; _ -X} } -X}             ",
"              o M g.K.m.y h 2 c !.W./.w._ -X' _ -X|             ",
"                  O %.r . i q.2 ; I Q.M._ -X` / -X}             ",
"                          @ 7.(.3.6 > G 8 %X[.).*X/             ",
"                          * u u 2 u .   . }.-X-XXXo             ",
"                          2 o             $  XOX7               ",
"                                            . .                 ",
"                                                                ",
"                                                                "
};
